HIERARCHY
ROOT Hips
{
 OFFSET 0.000000 0.000000 0.000000
 CHANNELS 6 Xposition Yposition Zposition Yrotation Xrotation Zrotation
 JOINT Chest
 {
  OFFSET 0.000000 9.585900 0.002600
  CHANNELS 3 Yrotation Xrotation Zrotation
  JOINT Chest2
  {
   OFFSET 0.000000 9.601200 -0.005300
   CHANNELS 3 Yrotation Xrotation Zrotation
   JOINT Chest3
   {
    OFFSET 0.000000 9.561800 0.000000
    CHANNELS 3 Yrotation Xrotation Zrotation
    JOINT Chest4
    {
     OFFSET 0.000000 9.552100 0.000000
     CHANNELS 3 Yrotation Xrotation Zrotation
     JOINT Neck
     {
      OFFSET 0.000000 14.453000 0.000000
      CHANNELS 3 Yrotation Xrotation Zrotation
      JOINT Head
      {
       OFFSET 0.000000 8.936500 -0.011300
       CHANNELS 3 Yrotation Xrotation Zrotation
       End Site
       {
        OFFSET 0.000000 17.073600 -0.006000
       }
      }
     }
     JOINT RightCollar
     {
      OFFSET -2.921100 9.558500 0.000000
      CHANNELS 3 Yrotation Xrotation Zrotation
      JOINT RightShoulder
      {
       OFFSET -13.519700 0.000000 0.000000
       CHANNELS 3 Yrotation Xrotation Zrotation
       JOINT RightElbow
       {
        OFFSET 0.000000 -29.696600 0.000000
        CHANNELS 3 Yrotation Xrotation Zrotation
        JOINT RightWrist
        {
         OFFSET 0.000000 -24.004700 0.000000
         CHANNELS 3 Yrotation Xrotation Zrotation
         End Site
         {
          OFFSET 0.000000 -17.728500 0.000000
         }
        }
       }
      }
     }
     JOINT LeftCollar
     {
      OFFSET 2.921100 9.558500 0.000000
      CHANNELS 3 Yrotation Xrotation Zrotation
      JOINT LeftShoulder
      {
       OFFSET 13.519700 0.000000 0.000000
       CHANNELS 3 Yrotation Xrotation Zrotation
       JOINT LeftElbow
       {
        OFFSET 0.000000 -29.696600 0.000000
        CHANNELS 3 Yrotation Xrotation Zrotation
        JOINT LeftWrist
        {
         OFFSET 0.000000 -24.004700 0.000000
         CHANNELS 3 Yrotation Xrotation Zrotation
         End Site
         {
          OFFSET 0.000000 -17.728500 0.000000
         }
        }
       }
      }
     }
    }
   }
  }
 }
 JOINT RightHip
 {
  OFFSET -7.771700 -0.012900 -0.001300
  CHANNELS 3 Yrotation Xrotation Zrotation
  JOINT RightKnee
  {
   OFFSET 0.000000 -40.869800 0.001200
   CHANNELS 3 Yrotation Xrotation Zrotation
   JOINT RightAnkle
   {
    OFFSET 0.000000 -39.717900 0.002100
    CHANNELS 3 Yrotation Xrotation Zrotation
    JOINT RightToe
    {
     OFFSET 0.000000 -4.965400 11.033500
     CHANNELS 3 Yrotation Xrotation Zrotation
     End Site
     {
      OFFSET 0.000000 -1.423100 5.872300
     }
    }
   }
  }
 }
 JOINT LeftHip
 {
  OFFSET 7.771700 -0.012900 -0.001300
  CHANNELS 3 Yrotation Xrotation Zrotation
  JOINT LeftKnee
  {
   OFFSET 0.000000 -40.869800 0.001200
   CHANNELS 3 Yrotation Xrotation Zrotation
   JOINT LeftAnkle
   {
    OFFSET 0.000000 -39.717900 0.002100
    CHANNELS 3 Yrotation Xrotation Zrotation
    JOINT LeftToe
    {
     OFFSET 0.000000 -4.965400 11.033500
     CHANNELS 3 Yrotation Xrotation Zrotation
     End Site
     {
      OFFSET 0.000000 -1.423100 5.872300
     }
    }
   }
  }
 }
}
MOTION
Frames: 8
Frame Time: 0.008333
-81.922106 57.367383 88.586507 175.741402 -32.409008 -1.764314 3.685757 20.568537 2.587820 0.404162 2.676178 0.288590 0.656078 4.369627 0.509504 2.956597 17.546233 2.430301 -0.076601 13.531461 -0.668702 0.061574 -10.756398 -1.341040 2.215687 -2.091116 -1.054327 4.726312 -13.078074 -14.971163 137.250639 -71.354810 -111.977330 18.649351 -19.257669 -45.606284 -5.153859 -3.548121 -0.490094 5.934484 -3.451988 -2.185852 -111.108885 -77.747125 79.742191 -9.771631 -2.805230 16.413278 6.889254 -44.412572 -3.034381 -12.236062 68.520698 -14.530568 9.757238 25.158066 5.751194 -0.758987 -17.888092 4.394402 -8.038700 -40.436970 4.538091 28.538088 67.194141 25.875469 -15.533704 2.708227 -3.385469 0.400902 0.498712 0.171246
-81.928150 57.364454 88.585210 175.755059 -32.409849 -1.777033 3.686688 20.569913 2.580309 0.398499 2.676898 0.296296 0.657505 4.373427 0.497660 2.954116 17.552196 2.410668 -0.091610 13.486221 -0.676467 0.038257 -10.817325 -1.365338 2.224695 -2.083638 -1.049914 4.719079 -13.045194 -14.987779 137.319450 -71.375755 -112.014999 18.652223 -19.252349 -45.557804 -5.132289 -3.518344 -0.474034 5.951634 -3.433229 -2.190600 -111.090002 -77.763047 79.700894 -9.767687 -2.814853 16.418387 6.901718 -44.416656 -3.042255 -12.266149 68.527498 -14.559122 9.758360 25.162963 5.763647 -0.757946 -17.873293 4.400059 -8.025782 -40.446023 4.534427 28.526820 67.209040 25.876637 -15.535106 2.714966 -3.377189 0.395867 0.488049 0.174617
-81.934390 57.361335 88.583248 175.770041 -32.408605 -1.789720 3.684277 20.573708 2.562968 0.393952 2.674012 0.312286 0.660102 4.377710 0.486789 2.953142 17.555526 2.400507 -0.111403 13.449953 -0.693895 0.025632 -10.873046 -1.396039 2.231221 -2.080179 -1.054150 4.706838 -13.016427 -15.004707 137.338337 -71.395149 -111.961535 18.676422 -19.264888 -45.606669 -5.102563 -3.466632 -0.493532 5.933313 -3.478982 -2.156354 -110.968272 -77.802464 79.575945 -9.761838 -2.821976 16.427640 6.915936 -44.422040 -3.054434 -12.301080 68.534285 -14.586533 9.754810 25.167442 5.769283 -0.748204 -17.870876 4.404783 -8.030049 -40.453830 4.537637 28.533773 67.221139 25.880987 -15.523967 2.715166 -3.360290 0.390931 0.484493 0.172057
-81.940005 57.357352 88.581837 175.781029 -32.397697 -1.805032 3.681060 20.563591 2.565078 0.396523 2.676325 0.302451 0.658842 4.377863 0.495486 2.953946 17.564063 2.383269 -0.147227 13.400580 -0.763185 0.036111 -10.874778 -1.344745 2.233689 -2.082685 -1.060268 4.687657 -12.994507 -15.020554 137.421699 -71.400761 -112.003098 18.683367 -19.272429 -45.649684 -5.098325 -3.459513 -0.484643 5.968524 -3.434327 -2.171604 -111.092918 -77.802181 79.663665 -9.755460 -2.827685 16.443588 6.930986 -44.436580 -3.065715 -12.328563 68.539674 -14.598360 9.745275 25.168895 5.759315 -0.737932 -17.865863 4.416920 -8.038205 -40.471105 4.547595 28.534859 67.231514 25.885272 -15.515551 2.718265 -3.355620 0.387344 0.479680 0.174106
-81.947616 57.354250 88.578041 175.780886 -32.396705 -1.801985 3.687709 20.570979 2.550392 0.400796 2.682608 0.294967 0.653012 4.367875 0.508541 2.957744 17.571478 2.368223 -0.152480 13.380416 -0.760480 0.027922 -10.903420 -1.362338 2.231168 -2.088479 -1.066635 4.672550 -12.990283 -15.013461 137.444120 -71.392418 -111.996975 18.676784 -19.275595 -45.667283 -5.101816 -3.464895 -0.464538 6.004718 -3.381580 -2.197144 -111.258566 -77.802182 79.791105 -9.753082 -2.835205 16.461080 6.950695 -44.439080 -3.080565 -12.338877 68.545020 -14.614038 9.749302 25.163175 5.769530 -0.739098 -17.862470 4.424043 -8.025999 -40.480934 4.542833 28.536427 67.255072 25.871769 -15.475530 2.718003 -3.319141 0.354343 0.473635 0.163397
-81.954916 57.351074 88.573907 175.793126 -32.392579 -1.807040 3.685858 20.577716 2.540275 0.397050 2.677398 0.300184 0.656815 4.374328 0.500444 2.961297 17.568648 2.358487 -0.158735 13.364098 -0.755633 0.010956 -10.994494 -1.482542 2.223921 -2.095552 -1.061958 4.660294 -12.984521 -15.017075 137.480175 -71.375412 -112.012095 18.694715 -19.282700 -45.658638 -5.104453 -3.457987 -0.461290 6.033844 -3.355624 -2.202494 -111.428946 -77.806950 79.922170 -9.754339 -2.845729 16.479147 6.958442 -44.444074 -3.093604 -12.344322 68.554150 -14.625395 9.750706 25.151591 5.783045 -0.737030 -17.848071 4.426359 -8.024756 -40.491456 4.537118 28.541027 67.266436 25.876750 -15.472260 2.718885 -3.308379 0.344243 0.469226 0.160508
-81.962679 57.348047 88.569204 175.804887 -32.387569 -1.807355 3.684324 20.581597 2.523096 0.397860 2.677289 0.299063 0.658248 4.374161 0.498696 2.960047 17.566256 2.351427 -0.167815 13.337465 -0.812951 0.006611 -11.031605 -1.502823 2.219325 -2.102863 -1.042122 4.639563 -12.971576 -15.060886 137.617542 -71.361648 -112.128209 18.697586 -19.282896 -45.672105 -5.108850 -3.447032 -0.474312 6.062177 -3.344855 -2.193849 -111.611884 -77.808080 80.065830 -9.755674 -2.860241 16.500656 7.007459 -44.451100 -3.138052 -12.370081 68.568490 -14.633460 9.752920 25.143623 5.798521 -0.739432 -17.839127 4.430139 -8.016467 -40.499943 4.523073 28.535068 67.271716 25.877901 -15.478600 2.717273 -3.307831 0.349774 0.468643 0.161717
-81.969659 57.345394 88.563920 175.818872 -32.383548 -1.810310 3.689691 20.591415 2.499898 0.391607 2.671508 0.309911 0.658246 4.373095 0.496559 2.955222 17.563589 2.343038 -0.162225 13.329169 -0.798685 0.012080 -11.067577 -1.574151 2.219453 -2.111499 -1.045335 4.612656 -12.967275 -15.084763 137.767097 -71.348446 -112.257435 18.700473 -19.280527 -45.682775 -5.109135 -3.449375 -0.453059 6.080729 -3.333715 -2.215738 -111.797855 -77.812191 80.220328 -9.756115 -2.877540 16.526559 7.007891 -44.455895 -3.149363 -12.342389 68.580636 -14.619610 9.752272 25.135208 5.810994 -0.740075 -17.822961 4.435193 -8.008767 -40.506681 4.511859 28.522524 67.282170 25.868095 -15.474208 2.708166 -3.298339 0.348423 0.473214 0.161656
